<svg xmlns="http://www.w3.org/2000/svg" width="1000" height="420">
<rect width="100%" height="100%" fill="white"/>
<text x="40" y="24" font-size="18">Function Fitting</text>
<text x="40" y="40" font-size="12">Target vs Prediction</text>
<text x="520.0" y="24" font-size="18">Training Loss</text>
<line x1="40" y1="380" x2="480.0" y2="380" stroke="#999"/>
<line x1="40" y1="40" x2="40" y2="380" stroke="#999"/>
<line x1="520.0" y1="380" x2="960" y2="380" stroke="#999"/>
<line x1="520.0" y1="40" x2="520.0" y2="380" stroke="#999"/>
<polyline points="40.00,60.87 41.73,60.65 43.45,60.46 45.18,60.31 46.90,60.21 48.63,60.16 50.35,60.18 52.08,60.27 53.80,60.44 55.53,60.69 57.25,61.04 58.98,61.48 60.71,62.03 62.43,62.69 64.16,63.47 65.88,64.37 67.61,65.40 69.33,66.55 71.06,67.85 72.78,69.28 74.51,70.86 76.24,72.58 77.96,74.45 79.69,76.48 81.41,78.65 83.14,80.98 84.86,83.47 86.59,86.12 88.31,88.92 90.04,91.88 91.76,94.99 93.49,98.26 95.22,101.69 96.94,105.27 98.67,109.00 100.39,112.88 102.12,116.90 103.84,121.07 105.57,125.37 107.29,129.81 109.02,134.38 110.75,139.08 112.47,143.89 114.20,148.82 115.92,153.86 117.65,159.01 119.37,164.25 121.10,169.58 122.82,174.99 124.55,180.48 126.27,186.04 128.00,191.67 129.73,197.34 131.45,203.07 133.18,208.83 134.90,214.62 136.63,220.43 138.35,226.26 140.08,232.09 141.80,237.91 143.53,243.73 145.25,249.52 146.98,255.28 148.71,261.01 150.43,266.68 152.16,272.30 153.88,277.86 155.61,283.34 157.33,288.74 159.06,294.06 160.78,299.27 162.51,304.38 164.24,309.37 165.96,314.24 167.69,318.99 169.41,323.60 171.14,328.06 172.86,332.38 174.59,336.54 176.31,340.54 178.04,344.37 179.76,348.02 181.49,351.50 183.22,354.79 184.94,357.90 186.67,360.81 188.39,363.53 190.12,366.05 191.84,368.37 193.57,370.48 195.29,372.38 197.02,374.08 198.75,375.56 200.47,376.83 202.20,377.89 203.92,378.74 205.65,379.37 207.37,379.79 209.10,380.00 210.82,380.00 212.55,379.79 214.27,379.38 216.00,378.76 217.73,377.95 219.45,376.93 221.18,375.72 222.90,374.33 224.63,372.75 226.35,370.99 228.08,369.05 229.80,366.95 231.53,364.68 233.25,362.25 234.98,359.68 236.71,356.96 238.43,354.10 240.16,351.11 241.88,348.00 243.61,344.77 245.33,341.43 247.06,338.00 248.78,334.47 250.51,330.86 252.24,327.18 253.96,323.42 255.69,319.61 257.41,315.75 259.14,311.85 260.86,307.92 262.59,303.96 264.31,299.99 266.04,296.02 267.76,292.04 269.49,288.08 271.22,284.14 272.94,280.22 274.67,276.34 276.39,272.51 278.12,268.72 279.84,265.00 281.57,261.34 283.29,257.76 285.02,254.27 286.75,250.86 288.47,247.54 290.20,244.33 291.92,241.23 293.65,238.24 295.37,235.36 297.10,232.62 298.82,230.00 300.55,227.52 302.27,225.17 304.00,222.97 305.73,220.90 307.45,218.99 309.18,217.23 310.90,215.62 312.63,214.16 314.35,212.86 316.08,211.72 317.80,210.73 319.53,209.91 321.25,209.23 322.98,208.72 324.71,208.36 326.43,208.15 328.16,208.10 329.88,208.19 331.61,208.43 333.33,208.82 335.06,209.35 336.78,210.01 338.51,210.80 340.24,211.73 341.96,212.77 343.69,213.94 345.41,215.22 347.14,216.60 348.86,218.08 350.59,219.66 352.31,221.33 354.04,223.07 355.76,224.89 357.49,226.78 359.22,228.72 360.94,230.71 362.67,232.75 364.39,234.82 366.12,236.91 367.84,239.03 369.57,241.15 371.29,243.27 373.02,245.39 374.75,247.48 376.47,249.56 378.20,251.59 379.92,253.59 381.65,255.53 383.37,257.42 385.10,259.23 386.82,260.97 388.55,262.62 390.27,264.18 392.00,265.64 393.73,266.98 395.45,268.21 397.18,269.32 398.90,270.29 400.63,271.12 402.35,271.81 404.08,272.35 405.80,272.72 407.53,272.93 409.25,272.97 410.98,272.84 412.71,272.52 414.43,272.02 416.16,271.32 417.88,270.44 419.61,269.35 421.33,268.07 423.06,266.58 424.78,264.88 426.51,262.98 428.24,260.86 429.96,258.54 431.69,256.00 433.41,253.25 435.14,250.29 436.86,247.11 438.59,243.72 440.31,240.12 442.04,236.32 443.76,232.30 445.49,228.08 447.22,223.66 448.94,219.04 450.67,214.23 452.39,209.23 454.12,204.03 455.84,198.66 457.57,193.11 459.29,187.38 461.02,181.49 462.75,175.44 464.47,169.23 466.20,162.88 467.92,156.38 469.65,149.75 471.37,143.00 473.10,136.12 474.82,129.13 476.55,122.04 478.27,114.86 480.00,107.58" fill="none" stroke="#1f77b4" stroke-width="2"/>
<polyline points="40.00,40.00 41.73,41.94 43.45,43.88 45.18,45.82 46.90,47.76 48.63,49.70 50.35,51.65 52.08,53.59 53.80,55.53 55.53,57.47 57.25,59.41 58.98,61.35 60.71,63.29 62.43,65.23 64.16,67.17 65.88,69.11 67.61,71.05 69.33,73.00 71.06,74.94 72.78,76.88 74.51,78.82 76.24,80.76 77.96,82.70 79.69,84.64 81.41,86.58 83.14,88.52 84.86,90.46 86.59,92.40 88.31,94.39 90.04,96.49 91.76,98.65 93.49,100.88 95.22,103.23 96.94,105.78 98.67,108.43 100.39,112.30 102.12,116.51 103.84,120.72 105.57,124.93 107.29,129.38 109.02,133.96 110.75,139.35 112.47,144.74 114.20,150.15 115.92,155.57 117.65,160.99 119.37,166.41 121.10,171.83 122.82,177.25 124.55,182.67 126.27,188.09 128.00,193.51 129.73,198.93 131.45,204.35 133.18,209.77 134.90,215.20 136.63,220.62 138.35,226.04 140.08,231.46 141.80,236.88 143.53,242.30 145.25,247.72 146.98,253.14 148.71,258.56 150.43,263.98 152.16,269.40 153.88,274.82 155.61,280.24 157.33,285.66 159.06,291.08 160.78,296.50 162.51,301.92 164.24,307.35 165.96,312.75 167.69,318.05 169.41,323.03 171.14,327.81 172.86,332.59 174.59,336.55 176.31,340.39 178.04,344.23 179.76,348.06 181.49,351.90 183.22,355.74 184.94,359.50 186.67,362.04 188.39,363.96 190.12,365.88 191.84,367.80 193.57,369.63 195.29,371.42 197.02,373.11 198.75,374.76 200.47,376.34 202.20,377.45 203.92,378.25 205.65,378.49 207.37,378.67 209.10,378.85 210.82,379.03 212.55,378.91 214.27,378.63 216.00,378.44 217.73,377.55 219.45,376.38 221.18,375.21 222.90,374.04 224.63,372.67 226.35,371.23 228.08,369.69 229.80,368.12 231.53,365.73 233.25,362.93 234.98,359.87 236.71,356.85 238.43,353.59 240.16,350.18 241.88,346.71 243.61,343.00 245.33,339.61 247.06,336.47 248.78,333.30 250.51,330.02 252.24,326.29 253.96,322.80 255.69,319.35 257.41,315.82 259.14,312.30 260.86,308.68 262.59,304.84 264.31,301.21 266.04,297.75 267.76,293.69 269.49,289.69 271.22,285.81 272.94,282.05 274.67,277.94 276.39,273.09 278.12,269.01 279.84,265.17 281.57,261.32 283.29,257.51 285.02,253.72 286.75,250.26 288.47,247.19 290.20,244.42 291.92,241.89 293.65,239.07 295.37,236.05 297.10,232.93 298.82,229.88 300.55,227.58 302.27,225.22 304.00,222.84 305.73,220.69 307.45,218.67 309.18,217.33 310.90,216.12 312.63,215.00 314.35,213.88 316.08,212.72 317.80,211.56 319.53,210.38 321.25,209.42 322.98,208.73 324.71,207.93 326.43,207.16 328.16,207.06 329.88,207.50 331.61,208.32 333.33,209.32 335.06,210.63 336.78,211.96 338.51,213.38 340.24,214.80 341.96,216.28 343.69,217.85 345.41,219.42 347.14,221.00 348.86,222.57 350.59,224.14 352.31,225.72 354.04,227.29 355.76,228.87 357.49,230.45 359.22,232.03 360.94,233.61 362.67,235.19 364.39,236.77 366.12,238.35 367.84,239.93 369.57,241.51 371.29,243.09 373.02,244.67 374.75,246.25 376.47,247.83 378.20,249.41 379.92,250.99 381.65,252.57 383.37,254.15 385.10,255.73 386.82,257.31 388.55,258.89 390.27,260.47 392.00,262.05 393.73,263.63 395.45,265.21 397.18,266.79 398.90,268.37 400.63,269.71 402.35,271.00 404.08,272.29 405.80,273.50 407.53,273.77 409.25,273.86 410.98,273.82 412.71,273.75 414.43,273.68 416.16,272.61 417.88,269.40 419.61,266.18 421.33,262.81 423.06,259.38 424.78,255.93 426.51,252.49 428.24,249.05 429.96,245.60 431.69,242.16 433.41,238.71 435.14,235.27 436.86,231.83 438.59,228.38 440.31,224.94 442.04,221.50 443.76,218.05 445.49,214.61 447.22,211.17 448.94,207.72 450.67,204.28 452.39,200.84 454.12,197.39 455.84,193.95 457.57,190.51 459.29,187.06 461.02,183.62 462.75,180.18 464.47,176.73 466.20,173.29 467.92,169.85 469.65,166.40 471.37,162.96 473.10,159.52 474.82,156.07 476.55,152.63 478.27,149.18 480.00,145.74" fill="none" stroke="#d62728" stroke-width="2"/>
<polyline points="520.00,40.00 522.20,275.07 524.40,304.66 526.60,324.91 528.80,336.86 531.00,344.10 533.20,348.48 535.40,351.09 537.60,352.63 539.80,353.49 542.00,353.99 544.20,354.33 546.40,354.56 548.60,354.78 550.80,354.91 553.00,354.99 555.20,355.05 557.40,355.12 559.60,355.18 561.80,355.18 564.00,355.25 566.20,355.37 568.40,355.41 570.60,355.48 572.80,355.47 575.00,355.63 577.20,355.61 579.40,355.79 581.60,355.88 583.80,355.97 586.00,356.07 588.20,356.12 590.40,356.26 592.60,356.34 594.80,356.47 597.00,357.04 599.20,357.15 601.40,357.26 603.60,357.37 605.80,357.47 608.00,357.55 610.20,357.66 612.40,357.78 614.60,357.88 616.80,357.96 619.00,358.10 621.20,358.21 623.40,358.31 625.60,358.45 627.80,358.56 630.00,358.69 632.20,358.84 634.40,358.96 636.60,359.10 638.80,359.23 641.00,359.37 643.20,359.51 645.40,359.64 647.60,359.78 649.80,359.94 652.00,360.09 654.20,360.24 656.40,360.39 658.60,360.58 660.80,360.73 663.00,360.90 665.20,361.06 667.40,361.23 669.60,361.38 671.80,361.57 674.00,361.74 676.20,361.87 678.40,362.08 680.60,362.27 682.80,362.43 685.00,362.64 687.20,362.82 689.40,363.00 691.60,363.20 693.80,363.39 696.00,363.59 698.20,363.77 700.40,363.97 702.60,364.12 704.80,364.36 707.00,364.56 709.20,364.77 711.40,365.14 713.60,365.36 715.80,365.54 718.00,365.77 720.20,365.96 722.40,366.17 724.60,366.39 726.80,366.59 729.00,366.80 731.20,367.01 733.40,367.22 735.60,367.44 737.80,367.64 740.00,367.86 742.20,368.07 744.40,368.30 746.60,368.51 748.80,368.73 751.00,368.95 753.20,369.16 755.40,369.37 757.60,369.56 759.80,369.77 762.00,369.98 764.20,370.16 766.40,370.38 768.60,370.56 770.80,370.77 773.00,370.92 775.20,371.15 777.40,371.34 779.60,371.54 781.80,371.72 784.00,371.91 786.20,372.11 788.40,372.26 790.60,372.47 792.80,372.64 795.00,372.80 797.20,373.00 799.40,373.16 801.60,373.34 803.80,373.50 806.00,373.68 808.20,373.84 810.40,374.01 812.60,374.18 814.80,374.31 817.00,374.49 819.20,374.57 821.40,374.82 823.60,374.98 825.80,375.14 828.00,375.30 830.20,375.47 832.40,375.62 834.60,375.75 836.80,375.89 839.00,376.03 841.20,376.17 843.40,376.29 845.60,376.37 847.80,376.50 850.00,376.64 852.20,376.76 854.40,376.85 856.60,376.97 858.80,377.09 861.00,377.19 863.20,377.29 865.40,377.34 867.60,377.49 869.80,377.57 872.00,377.67 874.20,377.78 876.40,377.87 878.60,377.93 880.80,378.02 883.00,378.13 885.20,378.22 887.40,378.31 889.60,378.38 891.80,378.46 894.00,378.53 896.20,378.60 898.40,378.68 900.60,378.74 902.80,378.80 905.00,378.85 907.20,378.94 909.40,378.99 911.60,379.03 913.80,379.08 916.00,379.15 918.20,379.21 920.40,379.25 922.60,379.31 924.80,379.37 927.00,379.40 929.20,379.45 931.40,379.49 933.60,379.54 935.80,379.59 938.00,379.63 940.20,379.67 942.40,379.71 944.60,379.72 946.80,379.78 949.00,379.83 951.20,379.86 953.40,379.89 955.60,379.93 957.80,379.96 960.00,380.00" fill="none" stroke="#2ca02c" stroke-width="2"/>
<text x="50" y="60" font-size="12" fill="#1f77b4">target</text>
<text x="50" y="78" font-size="12" fill="#d62728">prediction</text>
<text x="530.0" y="60" font-size="12" fill="#2ca02c">train mse</text>
</svg>